<?xml version="1.0" encoding="UTF-8"?>
<svg id="Layer_1" data-name="Layer 1" xmlns="http://www.w3.org/2000/svg" viewBox="0 0 403.68 121.75">
  <defs>
    <style>
      .cls-1 {
        fill: #070707;
      }

      .cls-2 {
        fill: #dd2c5c;
      }
    </style>
  </defs>
  <path class="cls-2" d="M65.39,113.25c-15.25,0-30.5-.03-45.75,.04-1.83,0-2.38-.44-2.04-2.31,.68-3.75,1.19-7.53,1.65-11.31,.18-1.45,.77-1.85,2.2-1.84,10.15,.05,20.29-.03,30.44,.04,1.68,.01,2.2-.5,2.32-2.14,.28-3.7,.81-7.38,1.18-11.07,.08-.82,.37-1.13,1.18-1.11,2.08,.04,4.17,.06,6.25,0,1.07-.03,1.5,.59,1.94,1.38,2.19,3.88,4.46,7.72,6.59,11.63,.52,.96,1.05,1.33,2.13,1.31,4.25-.06,8.49-.06,12.74,0,1.58,.02,1.91-.31,1.05-1.76-2.6-4.39-5.02-8.88-7.7-13.22-1.03-1.66-.49-2.24,.93-3.06,7.7-4.43,11.07-11.26,10.46-19.99-.51-7.43-5.31-12.71-12.84-14.6-3.37-.85-6.81-1.09-10.27-1.1-12.74-.03-25.48-.09-38.21-.03-1.93,0-2.46-.43-2.14-2.4,.92-5.75,1.7-11.52,2.43-17.3,.18-1.39,.72-1.79,2.06-1.76,3.24,.08,6.48-.06,9.71,.05,1.63,.06,2.32-.3,2.65-2.1C46.72,7.48,60.72-1.66,73.28,1.56c9.23,2.37,15.52,9.7,16.27,19.19,.12,1.48,.51,2,2.01,1.93,2.23-.11,4.47,.1,6.69-.06,1.76-.13,2.36,.55,2.57,2.21,.8,6.27,1.69,12.54,2.58,18.8,2.76,19.42,5.52,38.83,8.3,58.25,.45,3.13,.84,6.27,1.44,9.37,.32,1.67-.1,2.08-1.77,2.07-15.32-.06-30.64-.03-45.96-.03v-.04Zm1.4-90.58c4.6,0,9.19-.04,13.79,.03,1.34,.02,1.8-.39,1.63-1.73-.45-3.39-1.79-6.32-4.28-8.69-8.36-7.95-22.69-3.05-26.19,8.7-.43,1.43,.18,1.73,1.48,1.71,4.52-.05,9.05-.02,13.57-.02Zm14.58,7.54c-.88,2.24,.19,3.36,1.48,4.22,1.7,1.15,3.53,1.15,5.2-.13,1.57-1.2,2.21-2.72,1.29-4.83-.37,2.13-.81,4.03-3.24,4.41-2.61,.41-3.83-1.21-4.73-3.68Zm-38.18-.87c-.86,2.41-.27,3.88,1.25,5.01,1.71,1.27,3.98,1.2,5.6-.18,1.39-1.19,1.83-2.64,.9-4.52-.42,2.98-1.6,4.27-3.81,4.31-2.17,.05-3.5-1.34-3.94-4.62Z"/>
  <path class="cls-1" d="M18.83,114.39c3.55,0,7.11,0,10.66,0,18.34,.05,36.68-.03,55.03,.07,9.48,.05,18.96,0,28.44-.06,1.28,0,1.72-.13,1.49-1.63-1.73-11.8-3.32-23.62-5.01-35.42-2.09-14.57-4.24-29.13-6.35-43.69-.36-2.48-.65-4.97-1.03-7.97,1.16,1.91,1.71,3.76,3.88,4.03,.61,.08,.43,.98,.52,1.53,2.71,16.36,5.39,32.73,8.11,49.08,2.1,12.68,4.2,25.35,6.41,38.01,.35,1.98,.01,2.49-2.07,2.49-30.57-.07-61.15-.05-91.72-.02-1.31,0-2.21-.17-2.43-1.63-.18-1.19-1.05-1.79-2.03-2.29-1.33-.68-2.66-1.39-3.98-2.08,.03-.14,.05-.28,.08-.41Z"/>
  <path class="cls-2" d="M64.5,56.05c1.51,.11,3.29-.07,5.09,.19,2.97,.43,5.2,1.74,6.02,4.73,.87,3.19-.59,7.02-3.08,8.87-1.81,1.34-3.87,1.88-6.05,1.96-2.73,.09-5.46,.02-8.19,.08-1.05,.02-1.42-.33-1.3-1.39,.53-4.42,1.05-8.84,1.5-13.26,.1-.99,.6-1.17,1.41-1.17,1.44,.01,2.87,0,4.59,0Z"/>
  <rect class="cls-2" x="23.15" y="49.39" width="20.27" height="4.04" rx="1.13" ry="1.13"/>
  <rect class="cls-2" x="15.39" y="57.23" width="17.2" height="4.04" rx="1.13" ry="1.13"/>
  <rect class="cls-2" x="16.19" y="80.73" width="17.76" height="4.04" rx="1.13" ry="1.13"/>
  <rect class="cls-2" x="16.38" y="88.51" width="22.79" height="4.04" rx="1.13" ry="1.13"/>
  <rect class="cls-2" x="11.03" y="65.01" width="14.83" height="4.04" rx="1.13" ry="1.13"/>
  <rect class="cls-2" x="26.9" y="65.01" width="15.2" height="4.04" rx="1.13" ry="1.13"/>
  <rect class="cls-2" x="7.43" y="72.8" width="11.09" height="4.04" rx="1.13" ry="1.13"/>
  <rect class="cls-2" x="4.37" y="80.73" width="11.09" height="4.04" rx="1.13" ry="1.13"/>
  <rect class="cls-2" x="0" y="88.51" width="8.51" height="4.04" rx="1.13" ry="1.13"/>
  <rect class="cls-2" x="28.9" y="72.8" width="12.64" height="4.04" rx="1.13" ry="1.13"/>
  <rect class="cls-2" x="20" y="72.8" width="6.89" height="4.04" rx="1.13" ry="1.13"/>
  <rect class="cls-2" x="35.23" y="80.71" width="6.3" height="4.04" rx="1.13" ry="1.13"/>
  <rect class="cls-2" x="9.29" y="88.66" width="6.3" height="4.04" rx="1.13" ry="1.13"/>
  <rect class="cls-2" x="33.95" y="57.23" width="9.47" height="4.04" rx="1.13" ry="1.13"/>
  <g>
    <g>
      <path d="M155.82,44.71c0,5.02-1.99,8.27-5.96,9.73l7.94,11.21h-8.61l-6.95-10h-4.84v10h-6.99v-31.34h11.88c4.87,0,8.35,.82,10.42,2.47,2.08,1.64,3.12,4.29,3.12,7.94Zm-8.43,3.72c.87-.78,1.3-2.01,1.3-3.7s-.45-2.85-1.35-3.47c-.9-.63-2.47-.94-4.71-.94h-5.25v9.28h5.11c2.39,0,4.02-.39,4.89-1.17Z"/>
      <path d="M183.22,62.15c-2.72,2.57-5.91,3.86-9.57,3.86s-6.69-1.13-9.08-3.39c-2.39-2.26-3.59-5.28-3.59-9.08s1.22-6.82,3.65-9.06c2.44-2.24,5.31-3.36,8.63-3.36s6.14,1,8.45,3c2.32,2,3.47,4.75,3.47,8.25v3.59h-17.58c.21,1.32,.9,2.39,2.06,3.23,1.17,.84,2.48,1.25,3.95,1.25,2.36,0,4.3-.79,5.83-2.38l3.77,4.08Zm-6.46-14.3c-.93-.78-2.06-1.17-3.39-1.17s-2.55,.4-3.65,1.21c-1.11,.81-1.75,1.9-1.93,3.27h10.58c-.15-1.43-.69-2.54-1.61-3.32Z"/>
      <path d="M210.52,65.65h-6.32v-2.91c-1.73,2.18-3.88,3.27-6.43,3.27s-4.7-.74-6.43-2.22c-1.73-1.48-2.6-3.45-2.6-5.92s.9-4.31,2.69-5.54,4.24-1.84,7.35-1.84h5.02v-.13c0-2.57-1.36-3.86-4.08-3.86-1.17,0-2.4,.23-3.7,.7-1.3,.46-2.4,1.04-3.3,1.73l-3-4.35c3.17-2.3,6.79-3.45,10.85-3.45,2.93,0,5.32,.73,7.17,2.2,1.85,1.46,2.78,3.78,2.78,6.95v15.38Zm-6.77-9.19v-1.17h-4.21c-2.69,0-4.04,.84-4.04,2.51,0,.87,.32,1.53,.96,2,.64,.46,1.56,.69,2.76,.69s2.25-.37,3.16-1.1c.91-.73,1.37-1.71,1.37-2.94Z"/>
      <path d="M226.33,66c-2.86,0-5.4-1.21-7.65-3.63-2.24-2.42-3.36-5.43-3.36-9.01s1.09-6.52,3.27-8.81c2.18-2.29,4.74-3.43,7.67-3.43s5.32,1.03,7.17,3.09v-11.84h6.73v33.27h-6.73v-3.18c-1.88,2.36-4.25,3.54-7.11,3.54Zm-4.24-12.38c0,1.94,.58,3.53,1.75,4.77,1.17,1.24,2.53,1.86,4.08,1.86s2.88-.62,3.97-1.86c1.09-1.24,1.64-2.84,1.64-4.8s-.55-3.59-1.64-4.89c-1.09-1.3-2.43-1.95-4.01-1.95s-2.94,.66-4.08,1.97c-1.14,1.32-1.7,2.94-1.7,4.89Z"/>
      <path d="M250.7,75.15c-2.36,0-4.59-.96-6.68-2.87l3.05-4.98c1.13,1.11,2.3,1.66,3.5,1.66,.63,0,1.17-.31,1.61-.92,.45-.61,.67-1.26,.67-1.95s-3.11-8.88-9.33-24.57h7.17l5.87,15.02,5.87-15.02h7.17l-11.21,28.43c-.66,1.64-1.68,2.92-3.07,3.83-1.39,.91-2.94,1.37-4.64,1.37Z"/>
    </g>
    <g>
      <path d="M152.64,107.5c-2.72,2.57-5.91,3.86-9.57,3.86s-6.69-1.13-9.08-3.39c-2.39-2.26-3.59-5.28-3.59-9.08s1.22-6.82,3.65-9.06c2.44-2.24,5.31-3.36,8.63-3.36s6.13,1,8.45,3c2.32,2,3.47,4.75,3.47,8.25v3.59h-17.58c.21,1.32,.9,2.39,2.06,3.23s2.48,1.25,3.95,1.25c2.36,0,4.3-.79,5.83-2.38l3.77,4.08Zm-6.46-14.3c-.93-.78-2.06-1.17-3.38-1.17s-2.55,.4-3.65,1.21c-1.11,.81-1.75,1.9-1.93,3.27h10.58c-.15-1.43-.69-2.54-1.61-3.32Z"/>
      <path d="M174.52,104.81c3.44,0,6.25-1.36,8.43-4.08l4.48,4.62c-3.56,4.01-7.75,6.01-12.58,6.01s-8.8-1.52-11.93-4.57c-3.12-3.05-4.69-6.9-4.69-11.54s1.59-8.53,4.78-11.64c3.18-3.11,7.08-4.66,11.68-4.66,5.14,0,9.45,1.96,12.91,5.87l-4.35,4.93c-2.21-2.75-4.96-4.12-8.25-4.12-2.63,0-4.88,.86-6.75,2.58-1.87,1.72-2.8,4.04-2.8,6.95s.88,5.25,2.65,7.02c1.76,1.76,3.9,2.65,6.41,2.65Z"/>
      <path d="M215.45,98.94c0,3.5-1.21,6.44-3.63,8.83-2.42,2.39-5.46,3.59-9.12,3.59s-6.7-1.2-9.12-3.59c-2.42-2.39-3.63-5.34-3.63-8.83s1.21-6.45,3.63-8.86c2.42-2.41,5.46-3.61,9.12-3.61s6.7,1.2,9.12,3.61c2.42,2.41,3.63,5.36,3.63,8.86Zm-18.74,0c0,1.97,.56,3.58,1.68,4.82,1.12,1.24,2.56,1.86,4.3,1.86s3.18-.62,4.3-1.86c1.12-1.24,1.68-2.85,1.68-4.82s-.56-3.59-1.68-4.84-2.56-1.88-4.3-1.88-3.18,.63-4.3,1.88c-1.12,1.26-1.68,2.87-1.68,4.84Z"/>
      <path d="M242.58,98v13h-6.77v-13.18c0-1.91-.29-3.32-.88-4.21-.58-.9-1.52-1.34-2.82-1.34s-2.45,.49-3.45,1.46c-1,.97-1.5,2.4-1.5,4.28v13h-6.73v-24.12h6.73v2.74c1.85-2.09,3.97-3.14,6.37-3.14,1.52,0,2.91,.45,4.15,1.34s2.17,1.99,2.8,3.27c.93-1.46,2.17-2.6,3.74-3.41,1.57-.81,3.15-1.21,4.73-1.21,2.84,0,5.13,.84,6.86,2.53s2.6,4.13,2.6,7.33v14.66h-6.77v-13.18c0-3.71-1.36-5.56-4.08-5.56-1.34,0-2.51,.49-3.5,1.46s-1.48,2.4-1.48,4.28Z"/>
      <path d="M286.66,98v13h-6.77v-13.18c0-1.91-.29-3.32-.87-4.21s-1.52-1.34-2.83-1.34-2.45,.49-3.45,1.46c-1,.97-1.5,2.4-1.5,4.28v13h-6.73v-24.12h6.73v2.74c1.85-2.09,3.98-3.14,6.37-3.14,1.52,0,2.91,.45,4.15,1.34,1.24,.9,2.17,1.99,2.8,3.27,.93-1.46,2.17-2.6,3.74-3.41,1.57-.81,3.15-1.21,4.73-1.21,2.84,0,5.13,.84,6.86,2.53,1.73,1.69,2.6,4.13,2.6,7.33v14.66h-6.77v-13.18c0-3.71-1.36-5.56-4.08-5.56-1.35,0-2.51,.49-3.5,1.46s-1.48,2.4-1.48,4.28Z"/>
      <path d="M329.47,107.5c-2.72,2.57-5.91,3.86-9.57,3.86s-6.69-1.13-9.08-3.39c-2.39-2.26-3.59-5.28-3.59-9.08s1.22-6.82,3.65-9.06c2.44-2.24,5.31-3.36,8.63-3.36s6.14,1,8.45,3c2.32,2,3.47,4.75,3.47,8.25v3.59h-17.58c.21,1.32,.9,2.39,2.06,3.23,1.17,.84,2.48,1.25,3.95,1.25,2.36,0,4.3-.79,5.83-2.38l3.77,4.08Zm-6.46-14.3c-.93-.78-2.06-1.17-3.39-1.17s-2.55,.4-3.65,1.21c-1.11,.81-1.75,1.9-1.93,3.27h10.58c-.15-1.43-.69-2.54-1.61-3.32Z"/>
      <path d="M348.98,92.8c-2,0-3.5,.71-4.48,2.13-.99,1.42-1.48,3.3-1.48,5.63v10.45h-6.73v-24.12h6.73v3.18c.87-.99,1.95-1.82,3.25-2.51,1.3-.69,2.62-1.05,3.97-1.08l.04,6.32h-1.3Z"/>
      <path d="M366.29,105.39c2.24,0,4.26-1.12,6.05-3.36l3.99,4.48c-3.11,3.23-6.47,4.84-10.09,4.84s-6.67-1.14-9.17-3.43c-2.5-2.29-3.74-5.28-3.74-8.97s1.26-6.7,3.79-9.01c2.53-2.32,5.52-3.47,8.99-3.47,1.73,0,3.49,.36,5.27,1.08,1.78,.72,3.34,1.78,4.69,3.18l-3.5,4.57c-.78-.93-1.73-1.64-2.85-2.15-1.12-.51-2.23-.76-3.34-.76-1.76,0-3.28,.58-4.55,1.73-1.27,1.15-1.91,2.75-1.91,4.8s.63,3.64,1.91,4.77c1.27,1.14,2.76,1.7,4.46,1.7Z"/>
      <path d="M401.71,107.5c-2.72,2.57-5.91,3.86-9.57,3.86s-6.69-1.13-9.08-3.39c-2.39-2.26-3.59-5.28-3.59-9.08s1.22-6.82,3.65-9.06c2.44-2.24,5.31-3.36,8.63-3.36s6.14,1,8.45,3c2.32,2,3.47,4.75,3.47,8.25v3.59h-17.58c.21,1.32,.9,2.39,2.06,3.23,1.17,.84,2.48,1.25,3.95,1.25,2.36,0,4.3-.79,5.83-2.38l3.77,4.08Zm-6.46-14.3c-.93-.78-2.06-1.17-3.39-1.17s-2.55,.4-3.65,1.21c-1.11,.81-1.75,1.9-1.93,3.27h10.58c-.15-1.43-.69-2.54-1.61-3.32Z"/>
    </g>
  </g>
</svg>